<?xml version="1.0" standalone="no"?>
<svg xmlns="http://www.w3.org/2000/svg" width="500" height="500"><defs><clipPath id="clip-path-dot-color"><rect x="18" y="178" width="16" height="16" transform="rotate(0,26,186)"/><rect x="18" y="226" width="16" height="16" transform="rotate(0,26,234)"/><rect x="18" y="274" width="16" height="16" transform="rotate(0,26,282)"/><rect x="18" y="306" width="16" height="16" transform="rotate(0,26,314)"/><rect x="18" y="322" width="16" height="16" transform="rotate(0,26,330)"/><rect x="34" y="162" width="16" height="16" transform="rotate(0,42,170)"/><rect x="34" y="194" width="16" height="16" transform="rotate(0,42,202)"/><rect x="34" y="210" width="16" height="16" transform="rotate(0,42,218)"/><rect x="34" y="226" width="16" height="16" transform="rotate(0,42,234)"/><rect x="34" y="242" width="16" height="16" transform="rotate(0,42,250)"/><rect x="34" y="258" width="16" height="16" transform="rotate(0,42,266)"/><rect x="34" y="274" width="16" height="16" transform="rotate(0,42,282)"/><rect x="34" y="290" width="16" height="16" transform="rotate(0,42,298)"/><rect x="34" y="306" width="16" height="16" transform="rotate(0,42,314)"/><rect x="34" y="338" width="16" height="16" transform="rotate(0,42,346)"/><rect x="50" y="146" width="16" height="16" transform="rotate(0,58,154)"/><rect x="50" y="178" width="16" height="16" transform="rotate(0,58,186)"/><rect x="50" y="210" width="16" height="16" transform="rotate(0,58,218)"/><rect x="50" y="242" width="16" height="16" transform="rotate(0,58,250)"/><rect x="50" y="258" width="16" height="16" transform="rotate(0,58,266)"/><rect x="50" y="274" width="16" height="16" transform="rotate(0,58,282)"/><rect x="50" y="290" width="16" height="16" transform="rotate(0,58,298)"/><rect x="50" y="322" width="16" height="16" transform="rotate(0,58,330)"/><rect x="50" y="338" width="16" height="16" transform="rotate(0,58,346)"/><rect x="66" y="178" width="16" height="16" transform="rotate(0,74,186)"/><rect x="66" y="194" width="16" height="16" transform="rotate(0,74,202)"/><rect x="66" y="242" width="16" height="16" transform="rotate(0,74,250)"/><rect x="66" y="258" width="16" height="16" transform="rotate(0,74,266)"/><rect x="66" y="274" width="16" height="16" transform="rotate(0,74,282)"/><rect x="66" y="306" width="16" height="16" transform="rotate(0,74,314)"/><rect x="66" y="322" width="16" height="16" transform="rotate(0,74,330)"/><rect x="66" y="338" width="16" height="16" transform="rotate(0,74,346)"/><rect x="82" y="146" width="16" height="16" transform="rotate(0,90,154)"/><rect x="82" y="178" width="16" height="16" transform="rotate(0,90,186)"/><rect x="82" y="194" width="16" height="16" transform="rotate(0,90,202)"/><rect x="82" y="226" width="16" height="16" transform="rotate(0,90,234)"/><rect x="82" y="242" width="16" height="16" transform="rotate(0,90,250)"/><rect x="82" y="258" width="16" height="16" transform="rotate(0,90,266)"/><rect x="82" y="306" width="16" height="16" transform="rotate(0,90,314)"/><rect x="98" y="146" width="16" height="16" transform="rotate(0,106,154)"/><rect x="98" y="178" width="16" height="16" transform="rotate(0,106,186)"/><rect x="98" y="194" width="16" height="16" transform="rotate(0,106,202)"/><rect x="98" y="210" width="16" height="16" transform="rotate(0,106,218)"/><rect x="98" y="226" width="16" height="16" transform="rotate(0,106,234)"/><rect x="98" y="242" width="16" height="16" transform="rotate(0,106,250)"/><rect x="98" y="258" width="16" height="16" transform="rotate(0,106,266)"/><rect x="98" y="306" width="16" height="16" transform="rotate(0,106,314)"/><rect x="98" y="322" width="16" height="16" transform="rotate(0,106,330)"/><rect x="98" y="338" width="16" height="16" transform="rotate(0,106,346)"/><rect x="114" y="146" width="16" height="16" transform="rotate(0,122,154)"/><rect x="114" y="178" width="16" height="16" transform="rotate(0,122,186)"/><rect x="114" y="210" width="16" height="16" transform="rotate(0,122,218)"/><rect x="114" y="242" width="16" height="16" transform="rotate(0,122,250)"/><rect x="114" y="274" width="16" height="16" transform="rotate(0,122,282)"/><rect x="114" y="306" width="16" height="16" transform="rotate(0,122,314)"/><rect x="114" y="338" width="16" height="16" transform="rotate(0,122,346)"/><rect x="130" y="162" width="16" height="16" transform="rotate(0,138,170)"/><rect x="130" y="178" width="16" height="16" transform="rotate(0,138,186)"/><rect x="130" y="258" width="16" height="16" transform="rotate(0,138,266)"/><rect x="130" y="274" width="16" height="16" transform="rotate(0,138,282)"/><rect x="130" y="290" width="16" height="16" transform="rotate(0,138,298)"/><rect x="130" y="306" width="16" height="16" transform="rotate(0,138,314)"/><rect x="146" y="34" width="16" height="16" transform="rotate(0,154,42)"/><rect x="146" y="82" width="16" height="16" transform="rotate(0,154,90)"/><rect x="146" y="114" width="16" height="16" transform="rotate(0,154,122)"/><rect x="146" y="146" width="16" height="16" transform="rotate(0,154,154)"/><rect x="146" y="162" width="16" height="16" transform="rotate(0,154,170)"/><rect x="146" y="194" width="16" height="16" transform="rotate(0,154,202)"/><rect x="146" y="258" width="16" height="16" transform="rotate(0,154,266)"/><rect x="146" y="306" width="16" height="16" transform="rotate(0,154,314)"/><rect x="146" y="322" width="16" height="16" transform="rotate(0,154,330)"/><rect x="146" y="354" width="16" height="16" transform="rotate(0,154,362)"/><rect x="146" y="386" width="16" height="16" transform="rotate(0,154,394)"/><rect x="146" y="402" width="16" height="16" transform="rotate(0,154,410)"/><rect x="146" y="434" width="16" height="16" transform="rotate(0,154,442)"/><rect x="162" y="66" width="16" height="16" transform="rotate(0,170,74)"/><rect x="162" y="130" width="16" height="16" transform="rotate(0,170,138)"/><rect x="162" y="162" width="16" height="16" transform="rotate(0,170,170)"/><rect x="162" y="178" width="16" height="16" transform="rotate(0,170,186)"/><rect x="162" y="194" width="16" height="16" transform="rotate(0,170,202)"/><rect x="162" y="210" width="16" height="16" transform="rotate(0,170,218)"/><rect x="162" y="242" width="16" height="16" transform="rotate(0,170,250)"/><rect x="162" y="290" width="16" height="16" transform="rotate(0,170,298)"/><rect x="162" y="322" width="16" height="16" transform="rotate(0,170,330)"/><rect x="162" y="338" width="16" height="16" transform="rotate(0,170,346)"/><rect x="162" y="402" width="16" height="16" transform="rotate(0,170,410)"/><rect x="162" y="450" width="16" height="16" transform="rotate(0,170,458)"/><rect x="162" y="466" width="16" height="16" transform="rotate(0,170,474)"/><rect x="178" y="18" width="16" height="16" transform="rotate(0,186,26)"/><rect x="178" y="50" width="16" height="16" transform="rotate(0,186,58)"/><rect x="178" y="82" width="16" height="16" transform="rotate(0,186,90)"/><rect x="178" y="114" width="16" height="16" transform="rotate(0,186,122)"/><rect x="178" y="130" width="16" height="16" transform="rotate(0,186,138)"/><rect x="178" y="210" width="16" height="16" transform="rotate(0,186,218)"/><rect x="178" y="226" width="16" height="16" transform="rotate(0,186,234)"/><rect x="178" y="242" width="16" height="16" transform="rotate(0,186,250)"/><rect x="178" y="258" width="16" height="16" transform="rotate(0,186,266)"/><rect x="178" y="274" width="16" height="16" transform="rotate(0,186,282)"/><rect x="178" y="306" width="16" height="16" transform="rotate(0,186,314)"/><rect x="178" y="338" width="16" height="16" transform="rotate(0,186,346)"/><rect x="178" y="354" width="16" height="16" transform="rotate(0,186,362)"/><rect x="178" y="402" width="16" height="16" transform="rotate(0,186,410)"/><rect x="178" y="418" width="16" height="16" transform="rotate(0,186,426)"/><rect x="178" y="434" width="16" height="16" transform="rotate(0,186,442)"/><rect x="178" y="466" width="16" height="16" transform="rotate(0,186,474)"/><rect x="194" y="18" width="16" height="16" transform="rotate(0,202,26)"/><rect x="194" y="34" width="16" height="16" transform="rotate(0,202,42)"/><rect x="194" y="82" width="16" height="16" transform="rotate(0,202,90)"/><rect x="194" y="98" width="16" height="16" transform="rotate(0,202,106)"/><rect x="194" y="130" width="16" height="16" transform="rotate(0,202,138)"/><rect x="194" y="194" width="16" height="16" transform="rotate(0,202,202)"/><rect x="194" y="210" width="16" height="16" transform="rotate(0,202,218)"/><rect x="194" y="226" width="16" height="16" transform="rotate(0,202,234)"/><rect x="194" y="274" width="16" height="16" transform="rotate(0,202,282)"/><rect x="194" y="290" width="16" height="16" transform="rotate(0,202,298)"/><rect x="194" y="306" width="16" height="16" transform="rotate(0,202,314)"/><rect x="194" y="354" width="16" height="16" transform="rotate(0,202,362)"/><rect x="194" y="386" width="16" height="16" transform="rotate(0,202,394)"/><rect x="194" y="418" width="16" height="16" transform="rotate(0,202,426)"/><rect x="194" y="450" width="16" height="16" transform="rotate(0,202,458)"/><rect x="194" y="466" width="16" height="16" transform="rotate(0,202,474)"/><rect x="210" y="50" width="16" height="16" transform="rotate(0,218,58)"/><rect x="210" y="66" width="16" height="16" transform="rotate(0,218,74)"/><rect x="210" y="82" width="16" height="16" transform="rotate(0,218,90)"/><rect x="210" y="114" width="16" height="16" transform="rotate(0,218,122)"/><rect x="210" y="162" width="16" height="16" transform="rotate(0,218,170)"/><rect x="210" y="290" width="16" height="16" transform="rotate(0,218,298)"/><rect x="210" y="322" width="16" height="16" transform="rotate(0,218,330)"/><rect x="210" y="386" width="16" height="16" transform="rotate(0,218,394)"/><rect x="210" y="418" width="16" height="16" transform="rotate(0,218,426)"/><rect x="210" y="466" width="16" height="16" transform="rotate(0,218,474)"/><rect x="226" y="18" width="16" height="16" transform="rotate(0,234,26)"/><rect x="226" y="34" width="16" height="16" transform="rotate(0,234,42)"/><rect x="226" y="50" width="16" height="16" transform="rotate(0,234,58)"/><rect x="226" y="130" width="16" height="16" transform="rotate(0,234,138)"/><rect x="226" y="162" width="16" height="16" transform="rotate(0,234,170)"/><rect x="226" y="178" width="16" height="16" transform="rotate(0,234,186)"/><rect x="226" y="194" width="16" height="16" transform="rotate(0,234,202)"/><rect x="226" y="210" width="16" height="16" transform="rotate(0,234,218)"/><rect x="226" y="258" width="16" height="16" transform="rotate(0,234,266)"/><rect x="226" y="274" width="16" height="16" transform="rotate(0,234,282)"/><rect x="226" y="290" width="16" height="16" transform="rotate(0,234,298)"/><rect x="226" y="338" width="16" height="16" transform="rotate(0,234,346)"/><rect x="226" y="370" width="16" height="16" transform="rotate(0,234,378)"/><rect x="226" y="402" width="16" height="16" transform="rotate(0,234,410)"/><rect x="226" y="434" width="16" height="16" transform="rotate(0,234,442)"/><rect x="226" y="466" width="16" height="16" transform="rotate(0,234,474)"/><rect x="242" y="34" width="16" height="16" transform="rotate(0,250,42)"/><rect x="242" y="82" width="16" height="16" transform="rotate(0,250,90)"/><rect x="242" y="98" width="16" height="16" transform="rotate(0,250,106)"/><rect x="242" y="114" width="16" height="16" transform="rotate(0,250,122)"/><rect x="242" y="146" width="16" height="16" transform="rotate(0,250,154)"/><rect x="242" y="162" width="16" height="16" transform="rotate(0,250,170)"/><rect x="242" y="178" width="16" height="16" transform="rotate(0,250,186)"/><rect x="242" y="210" width="16" height="16" transform="rotate(0,250,218)"/><rect x="242" y="306" width="16" height="16" transform="rotate(0,250,314)"/><rect x="242" y="338" width="16" height="16" transform="rotate(0,250,346)"/><rect x="242" y="402" width="16" height="16" transform="rotate(0,250,410)"/><rect x="242" y="450" width="16" height="16" transform="rotate(0,250,458)"/><rect x="242" y="466" width="16" height="16" transform="rotate(0,250,474)"/><rect x="258" y="18" width="16" height="16" transform="rotate(0,266,26)"/><rect x="258" y="82" width="16" height="16" transform="rotate(0,266,90)"/><rect x="258" y="162" width="16" height="16" transform="rotate(0,266,170)"/><rect x="258" y="210" width="16" height="16" transform="rotate(0,266,218)"/><rect x="258" y="226" width="16" height="16" transform="rotate(0,266,234)"/><rect x="258" y="242" width="16" height="16" transform="rotate(0,266,250)"/><rect x="258" y="274" width="16" height="16" transform="rotate(0,266,282)"/><rect x="258" y="322" width="16" height="16" transform="rotate(0,266,330)"/><rect x="258" y="354" width="16" height="16" transform="rotate(0,266,362)"/><rect x="258" y="386" width="16" height="16" transform="rotate(0,266,394)"/><rect x="258" y="418" width="16" height="16" transform="rotate(0,266,426)"/><rect x="258" y="450" width="16" height="16" transform="rotate(0,266,458)"/><rect x="258" y="466" width="16" height="16" transform="rotate(0,266,474)"/><rect x="274" y="34" width="16" height="16" transform="rotate(0,282,42)"/><rect x="274" y="82" width="16" height="16" transform="rotate(0,282,90)"/><rect x="274" y="114" width="16" height="16" transform="rotate(0,282,122)"/><rect x="274" y="146" width="16" height="16" transform="rotate(0,282,154)"/><rect x="274" y="162" width="16" height="16" transform="rotate(0,282,170)"/><rect x="274" y="210" width="16" height="16" transform="rotate(0,282,218)"/><rect x="274" y="274" width="16" height="16" transform="rotate(0,282,282)"/><rect x="274" y="338" width="16" height="16" transform="rotate(0,282,346)"/><rect x="274" y="354" width="16" height="16" transform="rotate(0,282,362)"/><rect x="274" y="370" width="16" height="16" transform="rotate(0,282,378)"/><rect x="274" y="386" width="16" height="16" transform="rotate(0,282,394)"/><rect x="274" y="450" width="16" height="16" transform="rotate(0,282,458)"/><rect x="290" y="18" width="16" height="16" transform="rotate(0,298,26)"/><rect x="290" y="50" width="16" height="16" transform="rotate(0,298,58)"/><rect x="290" y="66" width="16" height="16" transform="rotate(0,298,74)"/><rect x="290" y="82" width="16" height="16" transform="rotate(0,298,90)"/><rect x="290" y="98" width="16" height="16" transform="rotate(0,298,106)"/><rect x="290" y="178" width="16" height="16" transform="rotate(0,298,186)"/><rect x="290" y="194" width="16" height="16" transform="rotate(0,298,202)"/><rect x="290" y="210" width="16" height="16" transform="rotate(0,298,218)"/><rect x="290" y="242" width="16" height="16" transform="rotate(0,298,250)"/><rect x="290" y="306" width="16" height="16" transform="rotate(0,298,314)"/><rect x="290" y="322" width="16" height="16" transform="rotate(0,298,330)"/><rect x="290" y="386" width="16" height="16" transform="rotate(0,298,394)"/><rect x="290" y="402" width="16" height="16" transform="rotate(0,298,410)"/><rect x="290" y="418" width="16" height="16" transform="rotate(0,298,426)"/><rect x="290" y="434" width="16" height="16" transform="rotate(0,298,442)"/><rect x="290" y="466" width="16" height="16" transform="rotate(0,298,474)"/><rect x="306" y="50" width="16" height="16" transform="rotate(0,314,58)"/><rect x="306" y="114" width="16" height="16" transform="rotate(0,314,122)"/><rect x="306" y="130" width="16" height="16" transform="rotate(0,314,138)"/><rect x="306" y="194" width="16" height="16" transform="rotate(0,314,202)"/><rect x="306" y="242" width="16" height="16" transform="rotate(0,314,250)"/><rect x="306" y="258" width="16" height="16" transform="rotate(0,314,266)"/><rect x="306" y="322" width="16" height="16" transform="rotate(0,314,330)"/><rect x="306" y="418" width="16" height="16" transform="rotate(0,314,426)"/><rect x="306" y="466" width="16" height="16" transform="rotate(0,314,474)"/><rect x="322" y="66" width="16" height="16" transform="rotate(0,330,74)"/><rect x="322" y="130" width="16" height="16" transform="rotate(0,330,138)"/><rect x="322" y="162" width="16" height="16" transform="rotate(0,330,170)"/><rect x="322" y="194" width="16" height="16" transform="rotate(0,330,202)"/><rect x="322" y="210" width="16" height="16" transform="rotate(0,330,218)"/><rect x="322" y="242" width="16" height="16" transform="rotate(0,330,250)"/><rect x="322" y="258" width="16" height="16" transform="rotate(0,330,266)"/><rect x="322" y="274" width="16" height="16" transform="rotate(0,330,282)"/><rect x="322" y="290" width="16" height="16" transform="rotate(0,330,298)"/><rect x="322" y="306" width="16" height="16" transform="rotate(0,330,314)"/><rect x="322" y="322" width="16" height="16" transform="rotate(0,330,330)"/><rect x="322" y="338" width="16" height="16" transform="rotate(0,330,346)"/><rect x="322" y="418" width="16" height="16" transform="rotate(0,330,426)"/><rect x="322" y="450" width="16" height="16" transform="rotate(0,330,458)"/><rect x="338" y="18" width="16" height="16" transform="rotate(0,346,26)"/><rect x="338" y="34" width="16" height="16" transform="rotate(0,346,42)"/><rect x="338" y="66" width="16" height="16" transform="rotate(0,346,74)"/><rect x="338" y="82" width="16" height="16" transform="rotate(0,346,90)"/><rect x="338" y="114" width="16" height="16" transform="rotate(0,346,122)"/><rect x="338" y="146" width="16" height="16" transform="rotate(0,346,154)"/><rect x="338" y="194" width="16" height="16" transform="rotate(0,346,202)"/><rect x="338" y="226" width="16" height="16" transform="rotate(0,346,234)"/><rect x="338" y="242" width="16" height="16" transform="rotate(0,346,250)"/><rect x="338" y="290" width="16" height="16" transform="rotate(0,346,298)"/><rect x="338" y="306" width="16" height="16" transform="rotate(0,346,314)"/><rect x="338" y="338" width="16" height="16" transform="rotate(0,346,346)"/><rect x="338" y="354" width="16" height="16" transform="rotate(0,346,362)"/><rect x="338" y="370" width="16" height="16" transform="rotate(0,346,378)"/><rect x="338" y="386" width="16" height="16" transform="rotate(0,346,394)"/><rect x="338" y="402" width="16" height="16" transform="rotate(0,346,410)"/><rect x="338" y="450" width="16" height="16" transform="rotate(0,346,458)"/><rect x="354" y="146" width="16" height="16" transform="rotate(0,362,154)"/><rect x="354" y="162" width="16" height="16" transform="rotate(0,362,170)"/><rect x="354" y="194" width="16" height="16" transform="rotate(0,362,202)"/><rect x="354" y="226" width="16" height="16" transform="rotate(0,362,234)"/><rect x="354" y="258" width="16" height="16" transform="rotate(0,362,266)"/><rect x="354" y="274" width="16" height="16" transform="rotate(0,362,282)"/><rect x="354" y="306" width="16" height="16" transform="rotate(0,362,314)"/><rect x="354" y="322" width="16" height="16" transform="rotate(0,362,330)"/><rect x="354" y="338" width="16" height="16" transform="rotate(0,362,346)"/><rect x="354" y="402" width="16" height="16" transform="rotate(0,362,410)"/><rect x="354" y="434" width="16" height="16" transform="rotate(0,362,442)"/><rect x="354" y="450" width="16" height="16" transform="rotate(0,362,458)"/><rect x="354" y="466" width="16" height="16" transform="rotate(0,362,474)"/><rect x="370" y="194" width="16" height="16" transform="rotate(0,378,202)"/><rect x="370" y="226" width="16" height="16" transform="rotate(0,378,234)"/><rect x="370" y="242" width="16" height="16" transform="rotate(0,378,250)"/><rect x="370" y="258" width="16" height="16" transform="rotate(0,378,266)"/><rect x="370" y="274" width="16" height="16" transform="rotate(0,378,282)"/><rect x="370" y="290" width="16" height="16" transform="rotate(0,378,298)"/><rect x="370" y="322" width="16" height="16" transform="rotate(0,378,330)"/><rect x="370" y="338" width="16" height="16" transform="rotate(0,378,346)"/><rect x="370" y="370" width="16" height="16" transform="rotate(0,378,378)"/><rect x="370" y="402" width="16" height="16" transform="rotate(0,378,410)"/><rect x="370" y="466" width="16" height="16" transform="rotate(0,378,474)"/><rect x="386" y="178" width="16" height="16" transform="rotate(0,394,186)"/><rect x="386" y="194" width="16" height="16" transform="rotate(0,394,202)"/><rect x="386" y="210" width="16" height="16" transform="rotate(0,394,218)"/><rect x="386" y="242" width="16" height="16" transform="rotate(0,394,250)"/><rect x="386" y="290" width="16" height="16" transform="rotate(0,394,298)"/><rect x="386" y="306" width="16" height="16" transform="rotate(0,394,314)"/><rect x="386" y="322" width="16" height="16" transform="rotate(0,394,330)"/><rect x="386" y="338" width="16" height="16" transform="rotate(0,394,346)"/><rect x="386" y="402" width="16" height="16" transform="rotate(0,394,410)"/><rect x="386" y="418" width="16" height="16" transform="rotate(0,394,426)"/><rect x="386" y="466" width="16" height="16" transform="rotate(0,394,474)"/><rect x="402" y="146" width="16" height="16" transform="rotate(0,410,154)"/><rect x="402" y="162" width="16" height="16" transform="rotate(0,410,170)"/><rect x="402" y="194" width="16" height="16" transform="rotate(0,410,202)"/><rect x="402" y="258" width="16" height="16" transform="rotate(0,410,266)"/><rect x="402" y="306" width="16" height="16" transform="rotate(0,410,314)"/><rect x="402" y="322" width="16" height="16" transform="rotate(0,410,330)"/><rect x="402" y="338" width="16" height="16" transform="rotate(0,410,346)"/><rect x="402" y="354" width="16" height="16" transform="rotate(0,410,362)"/><rect x="402" y="370" width="16" height="16" transform="rotate(0,410,378)"/><rect x="402" y="386" width="16" height="16" transform="rotate(0,410,394)"/><rect x="402" y="402" width="16" height="16" transform="rotate(0,410,410)"/><rect x="402" y="450" width="16" height="16" transform="rotate(0,410,458)"/><rect x="418" y="178" width="16" height="16" transform="rotate(0,426,186)"/><rect x="418" y="226" width="16" height="16" transform="rotate(0,426,234)"/><rect x="418" y="242" width="16" height="16" transform="rotate(0,426,250)"/><rect x="418" y="274" width="16" height="16" transform="rotate(0,426,282)"/><rect x="418" y="290" width="16" height="16" transform="rotate(0,426,298)"/><rect x="418" y="386" width="16" height="16" transform="rotate(0,426,394)"/><rect x="418" y="418" width="16" height="16" transform="rotate(0,426,426)"/><rect x="418" y="434" width="16" height="16" transform="rotate(0,426,442)"/><rect x="418" y="450" width="16" height="16" transform="rotate(0,426,458)"/><rect x="434" y="162" width="16" height="16" transform="rotate(0,442,170)"/><rect x="434" y="178" width="16" height="16" transform="rotate(0,442,186)"/><rect x="434" y="274" width="16" height="16" transform="rotate(0,442,282)"/><rect x="434" y="306" width="16" height="16" transform="rotate(0,442,314)"/><rect x="434" y="322" width="16" height="16" transform="rotate(0,442,330)"/><rect x="434" y="338" width="16" height="16" transform="rotate(0,442,346)"/><rect x="434" y="354" width="16" height="16" transform="rotate(0,442,362)"/><rect x="434" y="434" width="16" height="16" transform="rotate(0,442,442)"/><rect x="434" y="450" width="16" height="16" transform="rotate(0,442,458)"/><rect x="434" y="466" width="16" height="16" transform="rotate(0,442,474)"/><rect x="450" y="146" width="16" height="16" transform="rotate(0,458,154)"/><rect x="450" y="162" width="16" height="16" transform="rotate(0,458,170)"/><rect x="450" y="178" width="16" height="16" transform="rotate(0,458,186)"/><rect x="450" y="194" width="16" height="16" transform="rotate(0,458,202)"/><rect x="450" y="210" width="16" height="16" transform="rotate(0,458,218)"/><rect x="450" y="226" width="16" height="16" transform="rotate(0,458,234)"/><rect x="450" y="290" width="16" height="16" transform="rotate(0,458,298)"/><rect x="450" y="322" width="16" height="16" transform="rotate(0,458,330)"/><rect x="450" y="354" width="16" height="16" transform="rotate(0,458,362)"/><rect x="450" y="370" width="16" height="16" transform="rotate(0,458,378)"/><rect x="450" y="386" width="16" height="16" transform="rotate(0,458,394)"/><rect x="450" y="418" width="16" height="16" transform="rotate(0,458,426)"/><rect x="450" y="450" width="16" height="16" transform="rotate(0,458,458)"/><rect x="450" y="466" width="16" height="16" transform="rotate(0,458,474)"/><rect x="466" y="178" width="16" height="16" transform="rotate(0,474,186)"/><rect x="466" y="194" width="16" height="16" transform="rotate(0,474,202)"/><rect x="466" y="210" width="16" height="16" transform="rotate(0,474,218)"/><rect x="466" y="258" width="16" height="16" transform="rotate(0,474,266)"/><rect x="466" y="290" width="16" height="16" transform="rotate(0,474,298)"/><rect x="466" y="322" width="16" height="16" transform="rotate(0,474,330)"/><rect x="466" y="338" width="16" height="16" transform="rotate(0,474,346)"/><rect x="466" y="354" width="16" height="16" transform="rotate(0,474,362)"/><rect x="466" y="402" width="16" height="16" transform="rotate(0,474,410)"/><rect x="466" y="418" width="16" height="16" transform="rotate(0,474,426)"/><rect x="466" y="450" width="16" height="16" transform="rotate(0,474,458)"/></clipPath><clipPath id="clip-path-corners-square-color-0-0"><path clip-rule="evenodd" d="M 18 58v 32a 40 40, 0, 0, 0, 40 40h 32a 40 40, 0, 0, 0, 40 -40v -32a 40 40, 0, 0, 0, -40 -40h -32a 40 40, 0, 0, 0, -40 40M 58 34h 32a 24 24, 0, 0, 1, 24 24v 32a 24 24, 0, 0, 1, -24 24h -32a 24 24, 0, 0, 1, -24 -24v -32a 24 24, 0, 0, 1, 24 -24" transform="rotate(0,74,74)"/></clipPath><clipPath id="clip-path-corners-dot-color-0-0"><rect x="50" y="50" width="48" height="48" transform="rotate(0,74,74)"/></clipPath><clipPath id="clip-path-corners-square-color-1-0"><path clip-rule="evenodd" d="M 370 58v 32a 40 40, 0, 0, 0, 40 40h 32a 40 40, 0, 0, 0, 40 -40v -32a 40 40, 0, 0, 0, -40 -40h -32a 40 40, 0, 0, 0, -40 40M 410 34h 32a 24 24, 0, 0, 1, 24 24v 32a 24 24, 0, 0, 1, -24 24h -32a 24 24, 0, 0, 1, -24 -24v -32a 24 24, 0, 0, 1, 24 -24" transform="rotate(90,426,74)"/></clipPath><clipPath id="clip-path-corners-dot-color-1-0"><rect x="402" y="50" width="48" height="48" transform="rotate(90,426,74)"/></clipPath><clipPath id="clip-path-corners-square-color-0-1"><path clip-rule="evenodd" d="M 18 410v 32a 40 40, 0, 0, 0, 40 40h 32a 40 40, 0, 0, 0, 40 -40v -32a 40 40, 0, 0, 0, -40 -40h -32a 40 40, 0, 0, 0, -40 40M 58 386h 32a 24 24, 0, 0, 1, 24 24v 32a 24 24, 0, 0, 1, -24 24h -32a 24 24, 0, 0, 1, -24 -24v -32a 24 24, 0, 0, 1, 24 -24" transform="rotate(-90,74,426)"/></clipPath><clipPath id="clip-path-corners-dot-color-0-1"><rect x="50" y="402" width="48" height="48" transform="rotate(-90,74,426)"/></clipPath></defs><rect x="0" y="0" height="500" width="500" clip-path="url('#clip-path-background-color')" fill="#fff"/><rect x="0" y="0" height="500" width="500" clip-path="url('#clip-path-dot-color')" fill="#E83223"/><rect x="18" y="18" height="112" width="112" clip-path="url('#clip-path-corners-square-color-0-0')" fill="#E83223"/><rect x="50" y="50" height="48" width="48" clip-path="url('#clip-path-corners-dot-color-0-0')" fill="#E83223"/><rect x="370" y="18" height="112" width="112" clip-path="url('#clip-path-corners-square-color-1-0')" fill="#E83223"/><rect x="402" y="50" height="48" width="48" clip-path="url('#clip-path-corners-dot-color-1-0')" fill="#E83223"/><rect x="18" y="370" height="112" width="112" clip-path="url('#clip-path-corners-square-color-0-1')" fill="#E83223"/><rect x="50" y="402" height="48" width="48" clip-path="url('#clip-path-corners-dot-color-0-1')" fill="#E83223"/></svg>